PathFileType	4	(X/Y/Z)	26_2_65_p1_0-340_filt_butterworth.trc
DataRate	CameraRate	NumFrames	NumMarkers	Units	OrigDataRate	OrigDataStartFrame	OrigNumFrames
59.0	59.0	7	27	m	59.0	255	340
Frame#	Time	RHip			RKnee			RAnkle			RBigToe			RSmallToe			RHeel			LHip			LKnee			LAnkle			LBigToe			LSmallToe			LHeel			Neck			Head			Nose			RShoulder			RElbow			RWrist			RThumb			RIndex			RPinky			LShoulder			LElbow			LWrist			LThumb			LIndex			LPinky			
		X1	Y1	Z1	X2	Y2	Z2	X3	Y3	Z3	X4	Y4	Z4	X5	Y5	Z5	X6	Y6	Z6	X7	Y7	Z7	X8	Y8	Z8	X9	Y9	Z9	X10	Y10	Z10	X11	Y11	Z11	X12	Y12	Z12	X13	Y13	Z13	X14	Y14	Z14	X15	Y15	Z15	X16	Y16	Z16	X17	Y17	Z17	X18	Y18	Z18	X19	Y19	Z19	X20	Y20	Z20	X21	Y21	Z21	X22	Y22	Z22	X23	Y23	Z23	X24	Y24	Z24	X25	Y25	Z25	X26	Y26	Z26	X27	Y27	Z27	
255	4.322033898305085	0.30225500455576987	0.41084400647985436	1.0855444201431979	0.2768479771134905	-0.0180211218421375	1.0859185494956785	0.24728398592162176	-0.4865172852482581	1.1460118875415906	0.22063731071952952	-0.38749916676461177	0.8567248926565366	0.2668123783910438	-0.4453465296875302	0.9189617820003139	0.2474892097974641	-0.5637070403104089	1.1937624403699139	0.09591432128697937	0.42183534344541324	1.1053682697946747	0.10435772552831876	-0.018793994352242327	1.1127125596708451	0.12208881772702179	-0.47661880915219884	1.1231906162986982	0.09861068230957806	-0.39404597940085484	0.8787841417536073	0.05271117483238938	-0.4297390880231478	0.9676194594590104	0.13637547811327175	-0.559804324853524	1.1906548134566404	0.16383654978387802	0.9731962319942409	1.0236914756452382	0.1383392844834142	1.2330566276084178	0.9155192924433442	0.08756604499306544	1.0935493252779631	0.8742345930927431	0.32652126155713607	0.8958163938807712	0.9866660576608899	0.38044015900370276	0.665373839673106	0.8599211456438586	0.25512105431476406	0.5084744993420762	0.6582947639836547	0.16130986181182677	0.46108611901872243	0.5515016233542385	0.1645004283682439	0.4661634405678333	0.52022329299796	0.24662769688008707	0.4673204375570418	0.5164274085606816	0.054253521417257075	0.9188152027826579	1.1116693477282464	-0.036924414104787306	0.6750399927416213	1.1093253396852503	-0.1347514752156156	0.4865411617721549	0.9428673596122621	-0.16978506621069117	0.4524174372685592	0.8382241461218527	-0.23091532810391163	0.46083040676712816	0.8371262344039587	-0.215738125177801	0.4273526930447034	0.923972642702013	
256	4.338983050847458	0.30228353886536463	0.411204026222108	1.0855830232114614	0.27704644309669796	-0.01867737142982534	1.087036534635415	0.24726810171883734	-0.4869763289019928	1.1461754479859463	0.22053960608673148	-0.3872893637210348	0.8565733000228959	0.26693917048820764	-0.4451820204344508	0.9195344159322999	0.24736042329909294	-0.5639366953086185	1.193851344754619	0.09582077498407711	0.42223402767249557	1.10519723500299	0.1047704092550566	-0.019464696224070377	1.1140495153821552	0.1221438710642888	-0.47701321371580424	1.1231810876237844	0.09831374953451241	-0.391039486141415	0.8758675347694108	0.05271407865501304	-0.42963038645406576	0.9675240819280739	0.13627870302221337	-0.5598402721455054	1.1906083389661406	0.16384713501655507	0.9735457179925282	1.022757704082775	0.13765206515802847	1.2320758741903095	0.9184330356885239	0.08694426055146742	1.0938248570956484	0.8762872890832238	0.3265629714764329	0.8961834915401531	0.9867088326289739	0.38128106724916755	0.6646625342586081	0.8619440302489669	0.25498086013964116	0.5081751455420892	0.6580928937564261	0.16127912228710992	0.4611456370863084	0.5513721356414554	0.16449487965415893	0.466113207898707	0.520385747311223	0.2469710166619116	0.4677872331715241	0.5155328177248956	0.05425436733743488	0.9189762817904682	1.1117061327761193	-0.037094582158537164	0.6751546337134889	1.1090821105236135	-0.13569094471554058	0.4857490111588947	0.9473028668459406	-0.1712260224233666	0.4526139386868904	0.8418637559042512	-0.23450277052596447	0.46007067460492884	0.842281409274027	-0.21512456632561028	0.4260042616210415	0.9270556789672075	
257	4.3559322033898304	0.3023080915681934	0.41154477196641476	1.0856226986319097	0.27728050517586245	-0.019327399355223707	1.0882877380402682	0.2472381571467414	-0.4873193929463789	1.1463022497863455	0.2203576669386081	-0.38727299478671334	0.8561669829754529	0.26725596327176554	-0.44526873314317333	0.9207109159059415	0.24722582972133425	-0.5641966718168002	1.1939225025337836	0.09572648826383537	0.4225454489940345	1.1050311545482465	0.10521768409755272	-0.020187275039249053	1.1154896487254047	0.1221282428966276	-0.4777117528423063	1.1235366414006709	0.09767569648044859	-0.38861055815716383	0.8734957277698224	0.052719215244054346	-0.42954434044667	0.967458355869334	0.13613798263882926	-0.5598683900810597	1.19054749184456	0.163861063481875	0.9745796783491417	1.0212440056984844	0.13713140807089946	1.2320098562806387	0.9216551058335629	0.08626501997254948	1.0944424603458645	0.878609320364236	0.32661796738551696	0.8967195532223533	0.9867745071811262	0.3821976889518411	0.6639523735696127	0.8641360222749697	0.25504610202907957	0.5080290371320649	0.6582992419003144	0.16135422034165947	0.46105174575593044	0.5515797646273227	0.16472404574856883	0.46579240015387413	0.521178384012004	0.2471690544857386	0.4684516234374031	0.5142251697644733	0.054245822152571385	0.919556448918968	1.1118161147820587	-0.037539721505706586	0.6752847559026514	1.1087528932111996	-0.1361772139335114	0.4851213612981815	0.9516732047468095	-0.17256740258672523	0.45323831703460427	0.8441240609563169	-0.23661653336016758	0.45957794770495397	0.8456889362553701	-0.21444212957707726	0.42449191709946327	0.9302454687106863	
258	4.372881355932203	0.3023305117880248	0.4118644479833492	1.0856686645150573	0.27747765908386035	-0.01983731340531769	1.0894460720129149	0.24722321358312752	-0.4874808300137739	1.14636528602234	0.22012990054041587	-0.3874366145056502	0.855602391525691	0.26766623853092303	-0.4455143667026474	0.9221800970665063	0.2470535137277524	-0.5644827536172282	1.1939924141691491	0.0956393985301785	0.4228367718162085	1.1048653377635533	0.10563939839017401	-0.02086434578535712	1.1168359668988828	0.1220919852779764	-0.47840084134991	1.1239877871937818	0.0970871824157715	-0.3874536913213429	0.8724875010775477	0.052724951023107536	-0.42948094527182884	0.9674104096965178	0.13598905211914844	-0.5598536811969269	1.1904573137277432	0.16386877261227847	0.9763631418899081	1.0194808304510303	0.1368330262886862	1.2329915218984138	0.9251207310735763	0.08549793843510456	1.095692620575186	0.8813194964390672	0.32668121958802776	0.8973599014810489	0.9868558487797323	0.38307086990618266	0.6633425518605814	0.8661901813265669	0.25540101999604775	0.5078605934431668	0.6591472799813546	0.16159966816522292	0.4607281403177561	0.552306602546645	0.16531779574872624	0.46519535422811975	0.5226066665632338	0.24715958155561915	0.46926138963432984	0.5124539290452186	0.05422837505436034	0.9206519205159773	1.111982347471363	-0.03809424764377622	0.6753539794767512	1.1085969831346651	-0.13655894998442947	0.4847599320115292	0.9554443937728287	-0.1735878919043103	0.45414584384340717	0.8448135489522072	-0.2375644082179102	0.4591994731363225	0.8477051524790478	-0.21383229652028063	0.4231240681404655	0.9329960384377188	
259	4.389830508474576	0.30235405756058115	0.4121756891493105	1.0857250398575344	0.27758788239756416	-0.020223395675127986	1.0903833869221047	0.24726306008382884	-0.4874921342771735	1.1463656446505723	0.21990269673430296	-0.38782685214019613	0.8550524894654535	0.2679777306938823	-0.4456376673977655	0.9233850464464421	0.24689792795182294	-0.5647388201130921	1.194035030242632	0.09556383906078894	0.4231529994983717	1.1047050845479642	0.10600189451545616	-0.021446054572723527	1.117983948133905	0.12208127687236918	-0.4788665632440392	1.124296220576924	0.09678755230891567	-0.38795820758249355	0.8732851536659649	0.05272729049872488	-0.4294386454915353	0.9673707629310835	0.1359026711447343	-0.5598704531839831	1.1904279590233162	0.16386302529899824	0.9786768725199795	1.0180121111396068	0.136816772286514	1.2348808401060334	0.9288225748419152	0.08464882961127437	1.0976870596512738	0.8843499062090681	0.3267460933232995	0.8980425853046029	0.986945115478891	0.38377836097559337	0.6629265103272374	0.8678097127355335	0.25601455235617226	0.5075261658702447	0.6606060445742203	0.16205880593631825	0.46013520110194084	0.5536529438422171	0.166300451769049	0.46440639231496084	0.5244691985658039	0.24702228225842857	0.46998678097266305	0.5104614261285938	0.054205770495387676	0.9222764876567582	1.112166752300789	-0.03853531226607799	0.6753695182654647	1.1086168922577433	-0.13698401137626393	0.48467169255109	0.9582384782539215	-0.17413224875401787	0.45515271772355326	0.8443077429357422	-0.23774264486545926	0.4589476213329171	0.8485382618334667	-0.21342226652106827	0.4219443942171796	0.93528685899369	
260	4.406779661016949	0.3023815637011789	0.4124950658231925	1.0857920381619477	0.27759735266433905	-0.020558240013244744	1.0910757456571731	0.24736256295286493	-0.48739246784681156	1.1463216409593349	0.21975566627537269	-0.3885274531638923	0.8546786563764853	0.26803598511187027	-0.4453516271351648	0.9238934580157251	0.24684333767145117	-0.5648813240886527	1.1940043787616965	0.09549615426847974	0.42348994245391686	1.104565050751636	0.10629820601966587	-0.021923974720044148	1.1189138822838647	0.12209385500009784	-0.4790736163285488	1.1244307639090279	0.0966713474390952	-0.3898345903619529	0.8755383317524198	0.05272421500483854	-0.42941716132056884	0.9673390390421224	0.13592498152739785	-0.5600056543557751	1.190542010495655	0.16384172403561334	0.9811918451691788	1.0171792676202471	0.13703965123782175	1.2373204432777816	0.9326763233506713	0.08380042443287046	1.100243560636019	0.8873676087149034	0.3268034194962104	0.8986921572178853	0.987035723441035	0.3842187767661507	0.6627628136961612	0.8687705938317113	0.2567836330420178	0.5069637246377839	0.662464570081365	0.16278468936963175	0.4592375555956353	0.5557099075964127	0.16757375681104353	0.46354630818998566	0.5264921197905046	0.2468708367693344	0.4704047756033975	0.50858806433638	0.05417967579803515	0.9242087141919768	1.1123214448327328	-0.03869242476868486	0.6753643415198943	1.1087298822550664	-0.13737582645064855	0.484868809214694	0.9598535486690141	-0.17423409841446147	0.4560175038527568	0.843431706274717	-0.23758624113220037	0.4588884706688505	0.8484367038467779	-0.21328396900264152	0.42085343650392787	0.9373493838835828	
261	4.423728813559322	0.3024113958326326	0.4128096151261378	1.085863993220021	0.2775008572234754	-0.02083800173742295	1.0915609865514475	0.2474661095346663	-0.4871485276781043	1.1462378698315496	0.2198102731790444	-0.3895534387308895	0.8545800739430093	0.2678857286464105	-0.444732122907657	0.9238090538128862	0.24692695085582925	-0.564859124195645	1.1938880584460794	0.09543033198654925	0.4238139669055984	1.1044531163444313	0.10653253553681484	-0.02230300262207524	1.1196381873783068	0.12209180323829495	-0.4790960476545432	1.124566805014661	0.09647208618517784	-0.3924175168254239	0.8784423173597847	0.05271589995287922	-0.4294191456770155	0.9673255600239584	0.13606347017502657	-0.5602671046552588	1.1907948018592054	0.16380659672962614	0.9835358044694061	1.0171033321697514	0.13731832466208563	1.2398295925281109	0.9363694772704956	0.08303362838299608	1.1028783359406797	0.8900562542685113	0.3268437734437395	0.899220757437364	0.9871233254925031	0.38437155005041396	0.662820932841721	0.8690503660511825	0.2575935073401492	0.506207452120784	0.664462292832846	0.16379875056427118	0.458041661845785	0.5584491360344268	0.16896829565130939	0.46273486072252557	0.5284146718332277	0.24676215076919594	0.47041946183000216	0.5071503372661328	0.05414891021656278	0.9260922944486274	1.112401376719897	-0.03846214836155751	0.6753500960831204	1.1088975616707764	-0.13766444130887517	0.4852934631503671	0.9604215405453865	-0.17411962400780445	0.45651245508576	0.842854528761504	-0.23736198312468057	0.458923107429587	0.8479545228901978	-0.21337343333077513	0.41966188996014114	0.9396285121973136	
